<svg width="24" height="24" viewBox="0 0 24 24" fill="none" xmlns="http://www.w3.org/2000/svg">
<g clip-path="url(#clip0_114_5868)">
<path d="M9.99998 13.5H9.49998V14V19C9.49998 19.2738 9.27383 19.5 8.99998 19.5H5.99998C5.72612 19.5 5.49998 19.2738 5.49998 19V12V11.5H4.99998H3.30629L11.6634 3.97259C11.6635 3.97244 11.6637 3.97229 11.6639 3.97214C11.8539 3.80258 12.1461 3.80258 12.3361 3.97214C12.3362 3.97229 12.3364 3.97244 12.3366 3.97259L20.6937 11.5H19H18.5V12V19C18.5 19.2738 18.2738 19.5 18 19.5H15C14.7261 19.5 14.5 19.2738 14.5 19V14V13.5H14H9.99998Z" stroke="black"/>
</g>
<defs>
<clipPath id="clip0_114_5868">
<rect width="24" height="24" fill="white"/>
</clipPath>
</defs>
</svg>
